<svg
  width="1200"
  height="360"
  viewBox="0 0 1200 360"
  fill="none"
  xmlns="http://www.w3.org/2000/svg"
  role="img"
  aria-labelledby="title desc"
>
  <title id="title">forgelink README banner</title>
  <desc id="desc">
    forgelink banner showing a file path becoming a hosted forge URL.
  </desc>
  <rect width="1200" height="360" rx="36" fill="#0F172A" />
  <path
    d="M0 288C154 236 281 250 425 291C603 342 744 349 920 286C1033 245 1126 236 1200 255V360H0V288Z"
    fill="#111827"
  />

  <g transform="translate(78 70) scale(.38)">
    <rect
      width="512"
      height="512"
      rx="112"
      fill="#111827"
      stroke="#334155"
      stroke-width="10"
    />
    <g
      transform="rotate(-35 256 238)"
      stroke-linecap="round"
      stroke-linejoin="round"
    >
      <rect
        x="108"
        y="166"
        width="190"
        height="112"
        rx="56"
        stroke="#F97316"
        stroke-width="34"
      />
      <rect
        x="214"
        y="166"
        width="190"
        height="112"
        rx="56"
        stroke="#FDBA74"
        stroke-width="34"
      />
      <path d="M242 222h28" stroke="#111827" stroke-width="40" />
    </g>
    <g
      stroke="#94A3B8"
      stroke-width="18"
      stroke-linecap="round"
      stroke-linejoin="round"
    >
      <path d="M188 320c42 0 55-26 81-26h87" />
      <path d="M188 320v66" />
      <path d="M356 294v92" />
    </g>
    <g fill="#E2E8F0">
      <circle cx="188" cy="320" r="24" />
      <circle cx="356" cy="294" r="24" />
      <circle cx="356" cy="386" r="24" />
    </g>
    <path d="M149 424h214l32 44H117l32-44Z" fill="#334155" />
    <path d="M180 398h152l31 26H149l31-26Z" fill="#64748B" />
  </g>

  <text
    x="320"
    y="126"
    fill="#F8FAFC"
    font-family="ui-sans-serif, system-ui, -apple-system, BlinkMacSystemFont, Segoe UI, sans-serif"
    font-size="72"
    font-weight="800"
    letter-spacing="-2"
  >
    forgelink
  </text>
  <text
    x="324"
    y="174"
    fill="#CBD5E1"
    font-family="ui-sans-serif, system-ui, -apple-system, BlinkMacSystemFont, Segoe UI, sans-serif"
    font-size="28"
  >
    Generate stable links to code on Git forges.
  </text>

  <g transform="translate(320 215)">
    <rect width="760" height="72" rx="18" fill="#020617" stroke="#334155" />
    <text
      x="28"
      y="46"
      fill="#94A3B8"
      font-family="ui-monospace, SFMono-Regular, Menlo, Monaco, Consolas, monospace"
      font-size="25"
    >
      src/lib.rs:42
    </text>
    <path
      d="M250 36h135"
      stroke="#475569"
      stroke-width="4"
      stroke-linecap="round"
    />
    <path
      d="M370 22l18 14-18 14"
      stroke="#475569"
      stroke-width="4"
      stroke-linecap="round"
      stroke-linejoin="round"
    />
    <text
      x="420"
      y="46"
      fill="#F97316"
      font-family="ui-monospace, SFMono-Regular, Menlo, Monaco, Consolas, monospace"
      font-size="25"
    >
      github.com/.../src/lib.rs#L42
    </text>
  </g>
</svg>
